<svg id="Layer_1" data-name="Layer 1" xmlns="http://www.w3.org/2000/svg" xmlns:xlink="http://www.w3.org/1999/xlink" viewBox="0 0 32 30"><defs><clipPath id="clip-path"><rect x="1.04" y="0.76" width="15.24" height="28.48" style="fill:none"/></clipPath></defs><path d="M17.62,1.77l3.2,6.47a1.77,1.77,0,0,0,1.36,1l7.15,1a1.81,1.81,0,0,1,1,3.09l-5.17,5a1.81,1.81,0,0,0-.52,1.6l1.22,7.12A1.81,1.81,0,0,1,23.23,29l-6.39-3.36a1.78,1.78,0,0,0-1.68,0L8.77,29a1.81,1.81,0,0,1-2.63-1.91L7.36,20a1.81,1.81,0,0,0-.52-1.6l-5.17-5a1.81,1.81,0,0,1,1-3.09l7.15-1a1.77,1.77,0,0,0,1.36-1l3.2-6.47a1.8,1.8,0,0,1,3.24,0" style="fill:#c7c8ca"/><g style="clip-path:url(#clip-path)"><path d="M17.54,1.77l3.2,6.47a1.77,1.77,0,0,0,1.36,1l7.15,1a1.81,1.81,0,0,1,1,3.09l-5.17,5a1.83,1.83,0,0,0-.52,1.6l1.22,7.12A1.81,1.81,0,0,1,23.16,29l-6.4-3.36a1.78,1.78,0,0,0-1.68,0L8.69,29a1.81,1.81,0,0,1-2.63-1.91L7.28,20a1.8,1.8,0,0,0-.52-1.6l-5.17-5a1.81,1.81,0,0,1,1-3.09l7.15-1a1.77,1.77,0,0,0,1.36-1l3.2-6.47a1.8,1.8,0,0,1,3.24,0" style="fill:#fa9930"/></g></svg>