<svg id="Layer_1" data-name="Layer 1" xmlns="http://www.w3.org/2000/svg" xmlns:xlink="http://www.w3.org/1999/xlink" viewBox="0 0 17.42 18.82"><defs><clipPath id="clip-path"><rect x="0.25" y="0.19" width="16.92" height="18.45" style="fill:none"/></clipPath></defs><g style="clip-path:url(#clip-path)"><path d="M15.85,18.64a1.32,1.32,0,0,1-1.32-1.32V14.94a5.82,5.82,0,1,0-11.64,0v2.38a1.32,1.32,0,0,1-2.64,0V14.94a8.46,8.46,0,1,1,16.92,0v2.38a1.32,1.32,0,0,1-1.32,1.32" style="fill:#8cc43d"/><path d="M11.3,2.78A2.6,2.6,0,1,1,8.71.19,2.59,2.59,0,0,1,11.3,2.78" style="fill:#8cc43d"/></g></svg>