<svg id="Layer_1" data-name="Layer 1" xmlns="http://www.w3.org/2000/svg" xmlns:xlink="http://www.w3.org/1999/xlink" viewBox="0 0 20 20"><defs><clipPath id="clip-path"><rect x="0.32" y="0.32" width="19.36" height="19.36" style="fill:none"/></clipPath></defs><g style="clip-path:url(#clip-path)"><path d="M3.8,3.35a.45.45,0,0,0-.45.45v7a.45.45,0,0,0,.45.45H16.2a.45.45,0,0,0,.45-.45v-7a.45.45,0,0,0-.45-.45ZM16.2,14.23H3.8A3.47,3.47,0,0,1,.32,10.76v-7A3.48,3.48,0,0,1,3.8.32H16.2A3.48,3.48,0,0,1,19.68,3.8v7a3.47,3.47,0,0,1-3.48,3.47" style="fill:#fa9930"/><path d="M18.17,19.68H1.83a1.52,1.52,0,0,1,0-3H18.17a1.52,1.52,0,0,1,0,3" style="fill:#fa9930"/></g></svg>